<svg width="200" height="60" viewBox="0 0 200 60" xmlns="http://www.w3.org/2000/svg">
  <!-- Emblem: Speech Bubble with Star -->
  <g transform="translate(10, 10)">
    <path d="M5,0 H35 A5,5 0 0 1 40,5 V25 A5,5 0 0 1 35,30 H15 L5,40 V30 A5,5 0 0 1 0,25 V5 A5,5 0 0 1 5,0 Z" fill="#00245D" />
    <path d="M20,7 L22.3,13.5 H29 L23.5,17.5 L25.5,24 L20,20 L14.5,24 L16.5,17.5 L11,13.5 H17.7 Z" fill="#D4A66E" />
  </g>
  
  <!-- Text: SEND (Serif) YourSay (Sans) -->
  <text x="60" y="38" font-family="Merriweather, serif" font-weight="bold" font-size="24" fill="#00245D">SEND</text>
  <text x="128" y="38" font-family="Inter, sans-serif" font-weight="medium" font-size="24" fill="#00245D">YourSay</text>
</svg>
